# Blender 5.0.1
# www.blender.org
mtllib body.mtl
o body
v 0.200000 0.500000 0.523438
v 0.228125 0.560437 0.523438
v 0.200000 0.500000 0.476562
v 0.228125 0.560437 0.476562
v 0.775000 0.500000 0.523438
v 0.775000 0.560437 0.523438
v 0.775000 0.500000 0.476562
v 0.775000 0.560437 0.476562
v 0.262500 0.500000 0.476562
v 0.262500 0.560437 0.523438
v 0.262500 0.560437 0.476562
v 0.262500 0.500000 0.523438
v 0.256250 0.612500 0.518538
v 0.256250 0.612500 0.481462
v 0.262500 0.612500 0.518538
v 0.262500 0.612500 0.481462
vn -0.9066 0.4219 -0.0000
vn -0.0000 -0.0000 -1.0000
vn 1.0000 -0.0000 -0.0000
vn -0.0000 -0.0000 1.0000
vn -0.0000 1.0000 -0.0000
vn -0.0000 -1.0000 -0.0000
vn -0.0000 0.0937 0.9956
vn -0.0000 0.0937 -0.9956
vn -0.8798 0.4753 -0.0000
vt 0.000000 0.406250
vt 0.028125 0.468750
vt 0.312500 0.453125
vt 0.312500 0.421875
vt 0.062500 0.421875
vt 0.062500 0.453125
vt 0.343750 0.406250
vt 0.343750 0.468750
vt 0.312500 0.468750
vt 0.312500 0.406250
vt 0.062500 0.406250
vt 0.062500 0.468750
vt 0.062500 0.484375
vt 0.056250 0.484375
vt 0.061374 0.468750
vt 0.061374 0.484375
s 0
usemtl body
f 1/1/1 2/2/1 4/2/1 3/1/1
f 8/3/2 7/4/2 9/5/2 11/6/2
f 7/7/3 8/8/3 6/9/3 5/10/3
f 12/11/4 10/12/4 2/2/4 1/1/4
f 8/9/5 11/12/5 10/6/5 6/3/5
f 6/3/4 10/6/4 12/5/4 5/4/4
f 3/1/2 4/2/2 11/12/2 9/11/2
f 7/10/6 5/4/6 12/5/6 9/11/6
f 2/2/7 10/12/7 15/13/7 13/14/7
f 16/13/5 14/14/5 13/14/5 15/13/5
f 11/12/8 4/2/8 14/14/8 16/13/8
f 4/2/9 2/2/9 13/14/9 14/14/9
f 10/15/3 11/15/3 16/16/3 15/16/3
o body_handle
v 0.218750 0.187500 0.523438
v 0.131250 0.498750 0.511719
v 0.218750 0.187500 0.476562
v 0.131250 0.498750 0.488281
v 0.359375 0.187500 0.523438
v 0.375000 0.500000 0.523438
v 0.359375 0.187500 0.476562
v 0.375000 0.500000 0.476562
v 0.206250 0.250000 0.523438
v 0.206250 0.250000 0.476562
v 0.343750 0.212500 0.476562
v 0.343750 0.212500 0.523438
v 0.224971 0.469438 0.476562
v 0.224971 0.469438 0.523438
v 0.225000 0.500000 0.476562
v 0.225000 0.500000 0.523438
v 0.362500 0.393750 0.523438
v 0.362500 0.393750 0.476562
v 0.131250 0.495625 0.511719
v 0.131250 0.495625 0.488281
v 0.168750 0.500000 0.523438
v 0.168750 0.491210 0.476562
v 0.168750 0.500000 0.476562
v 0.168750 0.491210 0.523438
v 0.525000 0.500000 0.476562
v 0.525000 0.500000 0.523438
v 0.378125 0.431250 0.523438
v 0.378125 0.431250 0.476562
v 0.381250 0.468750 0.476562
v 0.381250 0.468750 0.523438
v 0.387500 0.412500 0.476562
v 0.387500 0.412500 0.523438
v 0.525000 0.493750 0.476562
v 0.525000 0.493750 0.523438
v 0.412500 0.481250 0.523438
v 0.250000 0.437500 0.523438
v 0.250000 0.437500 0.476562
v 0.250000 0.500000 0.476562
v 0.250000 0.500000 0.523438
v 0.412500 0.500000 0.523438
v 0.468750 0.481250 0.476562
v 0.468750 0.500000 0.523438
v 0.468750 0.481250 0.523438
v 0.412500 0.481250 0.476562
v 0.412500 0.500000 0.476562
v 0.468750 0.500000 0.476562
v 0.493750 0.500000 0.523438
v 0.493750 0.462500 0.476562
v 0.493750 0.462500 0.523438
v 0.493750 0.500000 0.476562
vn -0.0000 -0.0000 1.0000
vn 0.9947 -0.1029 -0.0000
vn -0.7871 -0.6168 -0.0000
vn -0.0000 -1.0000 -0.0000
vn 0.8480 0.5300 -0.0000
vn -0.0000 -0.0000 -1.0000
vn -0.9806 -0.1961 -0.0000
vn -0.0333 0.9994 -0.0000
vn -0.2983 -0.0000 -0.9545
vn -0.2983 -0.0000 0.9545
vn -0.1169 -0.9931 -0.0000
vn -1.0000 -0.0000 -0.0000
vn -0.3611 -0.9325 -0.0000
vn -0.0000 1.0000 -0.0000
vn 0.7071 -0.7071 -0.0000
vn 0.8944 0.4472 -0.0000
vn 0.9965 -0.0830 -0.0000
vn 0.6000 -0.8000 -0.0000
vn -0.9738 0.2272 -0.0000
vn 0.3714 -0.9285 -0.0000
vn 1.0000 -0.0000 -0.0000
vn -0.6000 -0.8000 -0.0000
vt 0.141696 0.221526
vt 0.153601 0.336606
vt 0.082172 0.364383
vt 0.054394 0.245336
vt 0.066280 0.384662
vt 0.062331 0.205653
vt 0.151616 0.205653
vt 0.030585 0.404066
vt 0.006775 0.403272
vt 0.030585 0.398485
vt 0.006775 0.401288
vt 0.082172 0.404066
vt 0.066299 0.404066
vt 0.180582 0.406250
vt 0.218035 0.406250
vt 0.218035 0.388826
vt 0.186825 0.377211
vt 0.066299 0.404066
vt 0.311785 0.359375
vt 0.342550 0.398438
vt 0.185765 0.328222
vt 0.173720 0.343964
vt 0.175664 0.375004
vt 0.156902 0.313179
vt 0.166746 0.401051
vt 0.311785 0.359375
vt 0.280535 0.382813
vt 0.280535 0.406250
vt 0.311785 0.406250
vt 0.161537 0.404066
vt 0.218035 0.382813
vt 0.342550 0.406250
s 0
usemtl body
f 28/17/10 33/18/10 52/19/10 25/20/10
f 27/17/11 34/18/11 33/18/11 28/17/11
f 30/21/12 29/21/12 53/19/12 52/19/12
f 19/22/13 23/23/13 21/23/13 17/22/13
f 21/23/10 28/17/10 25/20/10 17/22/10
f 23/23/14 27/17/14 28/17/14 21/23/14
f 19/22/15 26/20/15 27/17/15 23/23/15
f 17/22/16 25/20/16 26/20/16 19/22/16
f 37/24/17 39/24/17 20/25/17 18/25/17
f 39/24/18 38/26/18 36/27/18 20/25/18
f 52/19/10 55/28/10 32/29/10 30/21/10
f 24/30/15 61/31/15 60/32/15 45/33/15
f 40/26/19 37/24/19 18/25/19 35/27/19
f 38/26/20 40/26/20 35/27/20 36/27/20
f 36/27/21 35/27/21 18/25/21 20/25/21
f 26/20/15 53/19/15 34/18/15 27/17/15
f 29/21/22 30/21/22 40/26/22 38/26/22
f 30/21/10 32/29/10 37/24/10 40/26/10
f 31/34/15 29/21/15 38/26/15 39/24/15
f 32/29/23 31/29/23 39/24/23 37/24/23
f 65/35/24 64/35/24 49/36/24 50/36/24
f 48/37/25 47/37/25 44/38/25 43/38/25
f 22/30/10 46/33/10 51/32/10 56/31/10
f 43/38/26 44/38/26 45/39/26 46/39/26
f 33/40/27 34/40/27 47/37/27 48/37/27
f 43/38/10 46/39/10 22/41/10 33/40/10
f 34/40/15 44/38/15 47/37/15
f 64/42/15 57/43/15 62/44/15 66/45/15
f 65/35/10 63/45/10 58/44/10 59/43/10
f 55/28/10 52/19/10 33/18/10 22/46/10
f 52/19/28 53/19/28 26/20/28 25/20/28
f 54/28/15 53/19/15 29/21/15 31/34/15
f 34/18/15 53/19/15 54/28/15 24/46/15
f 43/38/10 33/40/10 48/37/10
f 45/39/15 44/38/15 34/40/15 24/41/15
f 46/33/29 45/33/29 60/32/29 51/32/29
f 56/31/10 51/47/10 59/43/10 58/44/10
f 51/47/13 60/47/13 57/43/13 59/43/13
f 61/31/15 62/44/15 57/43/15 60/47/15
f 49/36/30 41/48/30 42/48/30 50/36/30
f 50/36/10 42/48/10 63/45/10 65/35/10
f 49/36/15 64/42/15 66/45/15 41/48/15
f 59/43/31 57/43/31 64/35/31 65/35/31
o body_ring
v 0.379167 0.406250 0.512500
v 0.387500 0.412500 0.512500
v 0.379167 0.406250 0.487500
v 0.387500 0.412500 0.487500
v 0.473808 0.406250 0.512500
v 0.469393 0.412500 0.487500
v 0.473808 0.406250 0.487500
v 0.469393 0.412500 0.512500
v 0.493750 0.462500 0.487500
v 0.488512 0.466429 0.487500
v 0.493750 0.462500 0.512500
v 0.488512 0.466429 0.512500
vn -0.0000 -0.0000 1.0000
vn -0.0000 1.0000 -0.0000
vn -0.0000 -1.0000 -0.0000
vn -0.0000 -0.0000 -1.0000
vn -0.9425 0.3341 -0.0000
vn 0.9425 -0.3341 -0.0000
vt 0.262193 0.319634
vt 0.258885 0.324961
vt 0.197535 0.324961
vt 0.191292 0.319634
vt 0.258885 0.324961
vt 0.273208 0.370924
vt 0.277133 0.367576
s 0
usemtl body
f 71/49/32 74/50/32 68/51/32 67/52/32
f 72/53/33 70/51/33 68/51/33 74/50/33
f 69/52/34 73/49/34 71/49/34 67/52/34
f 69/52/35 70/51/35 72/53/35 73/49/35
f 71/49/35 74/50/35 78/54/35 77/55/35
f 71/49/36 77/55/36 75/55/36 73/49/36
f 78/54/37 74/50/37 72/53/37 76/54/37
f 75/55/32 76/54/32 72/53/32 73/49/32
o body_rail
v 0.750000 0.493750 0.523438
v 0.750000 0.500000 0.523438
v 0.750000 0.493750 0.476562
v 0.750000 0.500000 0.476562
v 0.775000 0.493750 0.523438
v 0.775000 0.500000 0.523438
v 0.775000 0.493750 0.476562
v 0.775000 0.500000 0.476562
v 0.700000 0.493750 0.523438
v 0.700000 0.500000 0.523438
v 0.700000 0.493750 0.476562
v 0.700000 0.500000 0.476562
v 0.725000 0.493750 0.523438
v 0.725000 0.500000 0.523438
v 0.725000 0.493750 0.476562
v 0.725000 0.500000 0.476562
v 0.650000 0.493750 0.523438
v 0.650000 0.500000 0.523438
v 0.650000 0.493750 0.476562
v 0.650000 0.500000 0.476562
v 0.675000 0.493750 0.523438
v 0.675000 0.500000 0.523438
v 0.675000 0.493750 0.476562
v 0.675000 0.500000 0.476562
v 0.600000 0.493750 0.523438
v 0.600000 0.500000 0.523438
v 0.600000 0.493750 0.476562
v 0.600000 0.500000 0.476562
v 0.625000 0.493750 0.523438
v 0.625000 0.500000 0.523438
v 0.625000 0.493750 0.476562
v 0.625000 0.500000 0.476562
v 0.550000 0.493750 0.523438
v 0.550000 0.500000 0.523438
v 0.550000 0.493750 0.476562
v 0.550000 0.500000 0.476562
v 0.575000 0.493750 0.523438
v 0.575000 0.500000 0.523438
v 0.575000 0.493750 0.476562
v 0.575000 0.500000 0.476562
vn -1.0000 -0.0000 -0.0000
vn -0.0000 -0.0000 -1.0000
vn 1.0000 -0.0000 -0.0000
vn -0.0000 -0.0000 1.0000
vn -0.0000 -1.0000 -0.0000
vt 0.316406 0.472656
vt 0.316406 0.496094
vt 0.339844 0.496094
vt 0.339844 0.472656
vt 0.285156 0.472656
vt 0.285156 0.496094
vt 0.308594 0.496094
vt 0.308594 0.472656
vt 0.253906 0.472656
vt 0.253906 0.496094
vt 0.277344 0.496094
vt 0.277344 0.472656
vt 0.222656 0.472656
vt 0.222656 0.496094
vt 0.246094 0.496094
vt 0.246094 0.472656
vt 0.191406 0.472656
vt 0.191406 0.496094
vt 0.214844 0.496094
vt 0.214844 0.472656
s 0
usemtl body
f 79/56/38 80/57/38 82/57/38 81/56/38
f 81/56/39 82/57/39 86/58/39 85/59/39
f 85/59/40 86/58/40 84/58/40 83/59/40
f 83/59/41 84/58/41 80/57/41 79/56/41
f 81/56/42 85/59/42 83/59/42 79/56/42
f 87/60/38 88/61/38 90/61/38 89/60/38
f 89/60/39 90/61/39 94/62/39 93/63/39
f 93/63/40 94/62/40 92/62/40 91/63/40
f 91/63/41 92/62/41 88/61/41 87/60/41
f 89/60/42 93/63/42 91/63/42 87/60/42
f 95/64/38 96/65/38 98/65/38 97/64/38
f 97/64/39 98/65/39 102/66/39 101/67/39
f 101/67/40 102/66/40 100/66/40 99/67/40
f 99/67/41 100/66/41 96/65/41 95/64/41
f 97/64/42 101/67/42 99/67/42 95/64/42
f 103/68/38 104/69/38 106/69/38 105/68/38
f 105/68/39 106/69/39 110/70/39 109/71/39
f 109/71/40 110/70/40 108/70/40 107/71/40
f 107/71/41 108/70/41 104/69/41 103/68/41
f 105/68/42 109/71/42 107/71/42 103/68/42
f 111/72/38 112/73/38 114/73/38 113/72/38
f 113/72/39 114/73/39 118/74/39 117/75/39
f 117/75/40 118/74/40 116/74/40 115/75/40
f 115/75/41 116/74/41 112/73/41 111/72/41
f 113/72/42 117/75/42 115/75/42 111/72/42
o body_nail
v 0.285212 0.460212 0.534375
v 0.291462 0.471038 0.534375
v 0.285212 0.460212 0.465625
v 0.291462 0.471038 0.465625
v 0.296038 0.453962 0.534375
v 0.302288 0.464788 0.534375
v 0.296038 0.453962 0.465625
v 0.302288 0.464788 0.465625
vn -0.8660 0.5000 -0.0000
vn -0.0000 -0.0000 -1.0000
vn 0.8660 -0.5000 -0.0000
vn -0.0000 -0.0000 1.0000
vn -0.5000 -0.8660 -0.0000
vn 0.5000 0.8660 -0.0000
vt 0.039062 0.351562
vt 0.039062 0.367188
vt 0.054688 0.367188
vt 0.054688 0.351562
s 0
usemtl body
f 119/76/43 120/77/43 122/77/43 121/76/43
f 121/76/44 122/77/44 126/78/44 125/79/44
f 125/79/45 126/78/45 124/78/45 123/79/45
f 123/79/46 124/78/46 120/77/46 119/76/46
f 121/76/47 125/79/47 123/79/47 119/76/47
f 126/78/48 122/77/48 120/77/48 124/78/48
