# Blender 5.0.1
# www.blender.org
mtllib bolt.mtl
o bolt
v 0.399759 0.485813 0.506250
v 0.387500 0.543750 0.506250
v 0.399759 0.485813 0.493750
v 0.387500 0.543750 0.493750
v 0.404488 0.489899 0.506250
v 0.400000 0.543750 0.506250
v 0.404488 0.489899 0.493750
v 0.400000 0.543750 0.493750
v 0.400000 0.500791 0.506250
v 0.400000 0.500791 0.493750
v 0.387500 0.500000 0.493750
v 0.387500 0.500000 0.506250
vn -0.0000 -0.0000 1.0000
vn -1.0000 -0.0000 -0.0000
vn -0.0000 -0.0000 -1.0000
vn 1.0000 -0.0000 -0.0000
vn 0.6538 -0.7567 -0.0000
vn -0.7567 -0.6538 -0.0000
vn 0.9246 0.3810 -0.0000
vt 0.239471 0.366872
vt 0.226503 0.362319
vt 0.227445 0.349638
vt 0.244336 0.362075
vt 0.215306 0.352568
vt 0.193942 0.352568
vt 0.215306 0.352568
vt 0.193942 0.365249
vt 0.214920 0.365249
vt 0.244336 0.362075
vt 0.227445 0.349638
vt 0.226503 0.362319
vt 0.214920 0.365249
s 0
usemtl bolt
f 5/1/1 9/2/1 12/3/1 1/4/1
f 12/5/2 2/6/2 4/6/2 11/5/2
f 11/7/3 4/6/3 8/8/3 10/9/3
f 10/9/4 8/8/4 6/8/4 9/9/4
f 3/4/5 7/1/5 5/1/5 1/4/5
f 1/10/6 12/3/6 11/3/6 3/10/6
f 3/10/3 11/11/3 10/12/3 7/1/3
f 7/1/7 10/12/7 9/12/7 5/1/7
f 9/13/1 6/8/1 2/6/1 12/5/1
