# Blender 5.0.1
# www.blender.org
mtllib slide.mtl
o slide
v 0.195724 0.587743 0.535966
v 0.238921 0.687500 0.517923
v 0.187500 0.568750 0.525000
v 0.406250 0.687500 0.517923
v 0.750000 0.639175 0.535966
v 0.750000 0.587742 0.535966
v 0.750000 0.568750 0.525001
v 0.750000 0.648671 0.530484
v 0.412500 0.587743 0.535966
v 0.412500 0.568750 0.525000
v 0.412500 0.639175 0.535966
v 0.412500 0.648671 0.530483
v 0.187500 0.568750 0.512500
v 0.238921 0.687500 0.500000
v 0.406250 0.687500 0.500000
v 0.228103 0.662517 0.508184
v 0.750000 0.568750 0.523438
v 0.406250 0.656250 0.535966
v 0.406250 0.656250 0.531250
v 0.406250 0.568750 0.525000
v 0.406250 0.587743 0.535966
v 0.406250 0.568750 0.523438
v 0.225389 0.656250 0.535966
v 0.228103 0.662517 0.500000
v 0.750000 0.636468 0.523438
v 0.406250 0.636468 0.523438
v 0.247747 0.687500 0.517923
v 0.406250 0.683313 0.515625
v 0.406250 0.683313 0.500000
v 0.236929 0.662517 0.500000
v 0.245934 0.683313 0.515625
v 0.234215 0.656250 0.531250
v 0.245934 0.683313 0.500000
v 0.196325 0.568750 0.525000
v 0.204550 0.587743 0.535966
v 0.234215 0.656250 0.535966
v 0.247747 0.687500 0.500000
v 0.236929 0.662517 0.508184
v 0.196325 0.568750 0.523438
v 0.187500 0.568750 0.523438
v 0.195724 0.587742 0.508184
v 0.196325 0.568750 0.512500
v 0.204549 0.587742 0.508184
v 0.225649 0.636468 0.523438
v 0.750000 0.613459 0.535966
v 0.412500 0.613459 0.535966
v 0.406250 0.613459 0.523438
v 0.406250 0.621996 0.535966
v 0.210557 0.621996 0.535966
v 0.750000 0.613459 0.523438
v 0.219382 0.621996 0.535966
v 0.210557 0.621996 0.508184
v 0.215685 0.613459 0.523438
v 0.219382 0.621996 0.508184
v 0.412500 0.568750 0.523438
v 0.412500 0.613459 0.523438
v 0.412500 0.636468 0.523438
v 0.412500 0.587743 0.523438
v 0.204549 0.587742 0.523438
v 0.750000 0.587742 0.523438
v 0.406250 0.587743 0.523438
v 0.195724 0.587743 0.464034
v 0.238921 0.687500 0.482077
v 0.187500 0.568750 0.475000
v 0.406250 0.687500 0.482077
v 0.750000 0.639175 0.464034
v 0.750000 0.587742 0.464034
v 0.750000 0.568750 0.474999
v 0.750000 0.648671 0.469516
v 0.412500 0.587743 0.464034
v 0.412500 0.568750 0.475000
v 0.412500 0.639175 0.464034
v 0.412500 0.648671 0.469517
v 0.187500 0.568750 0.487500
v 0.228103 0.662517 0.491816
v 0.750000 0.568750 0.476562
v 0.406250 0.656250 0.464034
v 0.406250 0.656250 0.468750
v 0.406250 0.568750 0.475000
v 0.406250 0.587743 0.464034
v 0.406250 0.568750 0.476562
v 0.225389 0.656250 0.464034
v 0.750000 0.636468 0.476562
v 0.406250 0.636468 0.476562
v 0.247747 0.687500 0.482077
v 0.406250 0.683313 0.484375
v 0.245934 0.683313 0.484375
v 0.234215 0.656250 0.468750
v 0.196325 0.568750 0.475000
v 0.204550 0.587743 0.464034
v 0.234215 0.656250 0.464034
v 0.236929 0.662517 0.491816
v 0.196325 0.568750 0.476562
v 0.187500 0.568750 0.476562
v 0.195724 0.587742 0.491816
v 0.196325 0.568750 0.487500
v 0.204549 0.587742 0.491816
v 0.225649 0.636468 0.476562
v 0.750000 0.613459 0.464034
v 0.412500 0.613459 0.464034
v 0.406250 0.613459 0.476562
v 0.406250 0.621996 0.464034
v 0.210557 0.621996 0.464034
v 0.750000 0.613459 0.476562
v 0.219382 0.621996 0.464034
v 0.210557 0.621996 0.491816
v 0.215685 0.613459 0.476562
v 0.219382 0.621996 0.491816
v 0.412500 0.568750 0.476562
v 0.412500 0.613459 0.476562
v 0.412500 0.636468 0.476562
v 0.412500 0.587743 0.476562
v 0.204549 0.587742 0.476562
v 0.750000 0.587742 0.476562
v 0.406250 0.587743 0.476562
vn -0.0000 -0.5000 0.8660
vn 0.9177 -0.3974 -0.0000
vn -0.0000 -0.0000 1.0000
vn -0.9177 0.3974 -0.0000
vn -0.0000 0.5000 0.8660
vn -0.0000 -0.0000 -1.0000
vn 0.7715 0.6362 -0.0000
vn -0.0000 1.0000 -0.0000
vn 0.8069 0.2954 0.5116
vn -0.0000 -1.0000 -0.0000
vn -0.0000 0.5000 -0.8660
vn 0.3145 0.3487 -0.8829
vn 1.0000 -0.0000 -0.0000
vn -0.0000 -0.5000 -0.8660
vn -0.0000 0.3673 -0.9301
vn -0.0000 -0.2216 -0.9751
vn 0.8069 0.2954 -0.5116
vn 0.3145 0.3487 0.8829
vn -0.0000 0.3673 0.9301
vn -0.0000 -0.2216 0.9751
vt 0.031250 0.531250
vt 0.218750 0.531250
vt 0.218750 0.562500
vt 0.038596 0.562500
vt 0.093750 0.718750
vt 0.093750 0.750000
vt 0.125000 0.750000
vt 0.125000 0.718750
vt 0.031250 0.593750
vt 0.031250 0.625000
vt 0.000000 0.625000
vt 0.000000 0.593750
vt 0.062500 0.750000
vt 0.031250 0.750000
vt 0.031250 0.718750
vt 0.062500 0.718750
vt 0.234375 0.562500
vt 0.234375 0.531250
vt 0.500000 0.531250
vt 0.500000 0.562500
vt 0.234375 0.593750
vt 0.500000 0.593750
vt 0.234375 0.640625
vt 0.234375 0.625000
vt 0.500000 0.625000
vt 0.500000 0.640625
vt 0.218750 0.593750
vt 0.218750 0.625000
vt 0.218750 0.656250
vt 0.077178 0.671875
vt 0.077178 0.656250
vt 0.218750 0.671875
vt 0.000000 0.718750
vt 0.031250 0.687500
vt 0.000000 0.687500
vt 0.075559 0.656250
vt 0.075559 0.671875
vt 0.031250 0.656250
vt 0.000000 0.656250
vt 0.312500 0.687500
vt 0.281250 0.687500
vt 0.281250 0.656250
vt 0.312500 0.656250
vt 0.065092 0.625000
vt 0.065092 0.625000
vt 0.051844 0.593750
vt 0.000000 0.500000
vt 0.031250 0.500000
vt 0.031250 0.529419
vt 0.000000 0.529419
vt 0.000000 0.531250
vt 0.031250 0.562500
vt 0.000000 0.562500
vt 0.218750 0.529419
vt 0.031250 0.671875
vt 0.000000 0.671875
vt 0.000000 0.750000
vt 0.250000 0.687500
vt 0.250000 0.656250
vt 0.057441 0.609375
vt 0.218750 0.609375
vt 0.038596 0.562500
vt 0.048542 0.593750
vt 0.484375 0.593750
vt 0.484375 0.625000
vt 0.484375 0.562500
vt 0.234375 0.529419
vt 0.500000 0.529419
vt 0.125000 0.734375
vt 0.484375 0.531250
s 0
usemtl bolt
f 34/1/1 20/2/1 21/3/1 35/4/1
f 43/5/2 59/6/2 39/7/2 42/8/2
f 51/9/3 36/10/3 23/11/3 49/12/3
f 49/13/4 23/14/4 16/15/4 52/16/4
f 9/17/1 10/18/1 7/19/1 6/20/1
f 46/21/3 9/17/3 6/20/3 45/22/3
f 12/23/5 11/24/5 5/25/5 8/26/5
f 47/27/6 26/28/6 57/24/6 56/21/6
f 60/20/6 58/17/6 56/21/6 50/22/6
f 19/29/7 18/28/7 12/23/7
f 37/30/8 27/31/8 4/29/8 15/32/8
f 16/15/4 23/14/4 2/33/4
f 12/23/9 18/28/9 11/24/9
f 48/27/3 21/3/3 9/17/3 46/21/3
f 21/3/1 20/2/1 10/18/1 9/17/1
f 24/34/4 16/15/4 2/33/4 14/35/4
f 28/29/10 31/36/10 33/37/10 29/32/10
f 25/25/11 57/24/11 12/23/11 8/26/11
f 12/23/12 26/28/12 19/29/12
f 36/10/5 27/38/5 2/39/5 23/11/5
f 38/15/2 30/34/2 33/35/2 31/33/2
f 15/40/13 4/41/13 28/42/13 29/43/13
f 28/29/14 19/28/14 32/44/14 31/36/14
f 27/31/5 36/45/5 18/28/5 4/29/5
f 48/27/3 18/28/3 36/45/3 51/46/3
f 13/47/10 42/48/10 39/49/10 40/50/10
f 3/51/1 34/1/1 35/52/1 1/53/1
f 39/49/10 22/54/10 20/2/10 34/1/10
f 30/55/10 38/38/10 16/39/10 24/56/10
f 40/50/10 39/49/10 34/1/10 3/51/10
f 32/57/2 38/15/2 31/33/2
f 4/41/13 18/58/13 19/59/13 28/42/13
f 44/60/15 32/44/15 19/28/15 26/61/15
f 47/27/6 61/3/6 59/62/6 53/63/6
f 52/12/6 54/9/6 43/52/6 41/53/6
f 41/53/16 43/52/16 42/1/16 13/51/16
f 44/14/2 53/13/2 54/16/2 38/15/2
f 5/25/13 45/22/13 50/64/13 25/65/13
f 14/56/8 2/39/8 27/38/8 37/55/8
f 45/22/13 6/20/13 60/66/13 50/64/13
f 5/25/13 25/65/13 8/26/13
f 32/57/2 44/14/2 38/15/2
f 53/13/2 59/6/2 43/5/2 54/16/2
f 16/11/6 38/10/6 54/9/6 52/12/6
f 26/61/6 47/27/6 53/63/6 44/60/6
f 21/3/3 48/27/3 51/46/3 35/4/3
f 18/28/3 48/27/3 46/21/3 11/24/3
f 22/2/6 61/3/6 58/17/6 55/18/6
f 11/24/3 46/21/3 45/22/3 5/25/3
f 1/6/4 49/13/4 52/16/4 41/5/4
f 35/52/3 51/9/3 49/12/3 1/53/3
f 22/54/10 55/67/10 10/18/10 20/2/10
f 56/21/6 57/24/6 25/25/6 50/22/6
f 55/18/6 58/17/6 60/20/6 17/19/6
f 55/67/10 17/68/10 7/19/10 10/18/10
f 12/23/11 57/24/11 26/28/11
f 59/62/6 61/3/6 22/2/6 39/1/6
f 58/17/6 61/3/6 47/27/6 56/21/6
f 40/69/4 3/7/4 1/6/4 41/5/4
f 13/8/4 40/69/4 41/5/4
f 60/66/13 6/20/13 7/19/13 17/70/13
f 89/1/14 90/4/14 80/3/14 79/2/14
f 97/5/2 96/8/2 93/7/2 113/6/2
f 105/9/6 103/12/6 82/11/6 91/10/6
f 103/13/4 106/16/4 75/15/4 82/14/4
f 70/17/14 67/20/14 68/19/14 71/18/14
f 100/21/6 99/22/6 67/20/6 70/17/6
f 73/23/11 69/26/11 66/25/11 72/24/11
f 101/27/3 110/21/3 111/24/3 84/28/3
f 114/20/3 104/22/3 110/21/3 112/17/3
f 78/29/7 73/23/7 77/28/7
f 37/30/8 15/32/8 65/29/8 85/31/8
f 75/15/4 63/33/4 82/14/4
f 73/23/17 72/24/17 77/28/17
f 102/27/6 100/21/6 70/17/6 80/3/6
f 80/3/14 70/17/14 71/18/14 79/2/14
f 24/34/4 14/35/4 63/33/4 75/15/4
f 86/29/10 29/32/10 33/37/10 87/36/10
f 83/25/5 69/26/5 73/23/5 111/24/5
f 73/23/18 78/29/18 84/28/18
f 91/10/11 82/11/11 63/39/11 85/38/11
f 92/15/2 87/33/2 33/35/2 30/34/2
f 15/40/13 29/43/13 86/42/13 65/41/13
f 86/29/1 87/36/1 88/44/1 78/28/1
f 85/31/11 65/29/11 77/28/11 91/45/11
f 102/27/6 105/46/6 91/45/6 77/28/6
f 74/47/10 94/50/10 93/49/10 96/48/10
f 64/51/14 62/53/14 90/52/14 89/1/14
f 93/49/10 89/1/10 79/2/10 81/54/10
f 30/55/10 24/56/10 75/39/10 92/38/10
f 94/50/10 64/51/10 89/1/10 93/49/10
f 88/57/2 87/33/2 92/15/2
f 65/41/13 86/42/13 78/59/13 77/58/13
f 98/60/19 84/61/19 78/28/19 88/44/19
f 101/27/3 107/63/3 113/62/3 115/3/3
f 106/12/3 95/53/3 97/52/3 108/9/3
f 95/53/20 74/51/20 96/1/20 97/52/20
f 98/14/2 92/15/2 108/16/2 107/13/2
f 66/25/13 83/65/13 104/64/13 99/22/13
f 14/56/8 37/55/8 85/38/8 63/39/8
f 99/22/13 104/64/13 114/66/13 67/20/13
f 66/25/13 69/26/13 83/65/13
f 88/57/2 92/15/2 98/14/2
f 107/13/2 108/16/2 97/5/2 113/6/2
f 75/11/3 106/12/3 108/9/3 92/10/3
f 84/61/3 98/60/3 107/63/3 101/27/3
f 80/3/6 90/4/6 105/46/6 102/27/6
f 77/28/6 72/24/6 100/21/6 102/27/6
f 81/2/3 109/18/3 112/17/3 115/3/3
f 72/24/6 66/25/6 99/22/6 100/21/6
f 62/6/4 95/5/4 106/16/4 103/13/4
f 90/52/6 62/53/6 103/12/6 105/9/6
f 81/54/10 79/2/10 71/18/10 109/67/10
f 110/21/3 104/22/3 83/25/3 111/24/3
f 109/18/3 76/19/3 114/20/3 112/17/3
f 109/67/10 71/18/10 68/19/10 76/68/10
f 73/23/5 84/28/5 111/24/5
f 113/62/3 93/1/3 81/2/3 115/3/3
f 112/17/3 110/21/3 101/27/3 115/3/3
f 94/69/4 95/5/4 62/6/4 64/7/4
f 74/8/4 95/5/4 94/69/4
f 114/66/13 76/70/13 68/19/13 67/20/13
o slide_upper
v 0.238921 0.687500 0.516042
v 0.238921 0.687500 0.506458
v 0.247747 0.687500 0.516042
v 0.247747 0.687500 0.506458
v 0.247747 0.705188 0.511667
v 0.247747 0.705188 0.506458
v 0.238921 0.705188 0.511667
v 0.238921 0.705188 0.506458
v 0.290247 0.687500 0.512749
v 0.290247 0.687500 0.506458
v 0.290247 0.691875 0.511667
v 0.290247 0.691875 0.506458
v 0.238921 0.687500 0.483958
v 0.238921 0.687500 0.493542
v 0.247747 0.687500 0.483958
v 0.247747 0.687500 0.493542
v 0.247747 0.705188 0.488333
v 0.247747 0.705188 0.493542
v 0.238921 0.705188 0.488333
v 0.238921 0.705188 0.493542
v 0.290247 0.687500 0.487251
v 0.290247 0.687500 0.493542
v 0.290247 0.691875 0.488333
v 0.290247 0.691875 0.493542
vn -0.0000 1.0000 -0.0000
vn -1.0000 -0.0000 -0.0000
vn -0.0000 0.2401 0.9707
vn -0.0000 -0.0000 -1.0000
vn 0.0750 0.2394 0.9680
vn 1.0000 -0.0000 -0.0000
vn 0.2989 0.9543 -0.0000
vn -0.0000 0.2401 -0.9707
vn -0.0000 -0.0000 1.0000
vn 0.0750 0.2394 -0.9680
vt 0.046875 0.711572
vt 0.062500 0.711572
vt 0.062500 0.711572
vt 0.046875 0.687500
vt 0.062500 0.687500
vt 0.140625 0.687500
vt 0.140625 0.693454
s 0
usemtl bolt
f 123/71/21 122/71/21 120/72/21 121/73/21
f 117/74/22 116/74/22 122/71/22 123/71/22
f 116/74/23 118/75/23 120/73/23 122/71/23
f 119/75/24 117/74/24 123/71/24 121/73/24
f 120/73/25 118/75/25 124/76/25 126/77/25
f 124/76/26 125/76/26 127/77/26 126/77/26
f 121/73/27 120/72/27 126/77/27 127/77/27
f 119/75/24 121/73/24 127/77/24 125/76/24
f 135/71/21 133/73/21 132/72/21 134/71/21
f 129/74/22 135/71/22 134/71/22 128/74/22
f 128/74/28 134/71/28 132/73/28 130/75/28
f 131/75/29 133/73/29 135/71/29 129/74/29
f 132/73/30 138/77/30 136/76/30 130/75/30
f 136/76/26 138/77/26 139/77/26 137/76/26
f 133/73/27 139/77/27 138/77/27 132/72/27
f 131/75/29 137/76/29 139/77/29 133/73/29
