# Blender 5.1.1
# www.blender.org
mtllib body.mtl
o holo
v 0.487500 0.689563 0.531250
v 0.551250 0.765813 0.517500
v 0.562500 0.689564 0.531250
v 0.493750 0.765813 0.517500
v 0.562500 0.720813 0.531250
v 0.487500 0.720813 0.531250
v 0.606250 0.689564 0.531250
v 0.600000 0.720813 0.531250
v 0.609375 0.711438 0.531250
v 0.609375 0.692688 0.531250
v 0.487500 0.683313 0.526250
v 0.493750 0.770813 0.518750
v 0.562500 0.683313 0.526250
v 0.550000 0.770813 0.518750
v 0.600000 0.683313 0.526250
v 0.493750 0.758313 0.531250
v 0.553125 0.758313 0.531250
v 0.553437 0.757063 0.526250
v 0.493750 0.757063 0.526250
v 0.487500 0.683313 0.500000
v 0.562500 0.683313 0.500000
v 0.487500 0.720813 0.500000
v 0.600000 0.683313 0.500000
v 0.600000 0.720813 0.500000
v 0.609375 0.711438 0.500000
v 0.609375 0.692688 0.500000
v 0.493750 0.765813 0.500000
v 0.551250 0.765813 0.500000
v 0.493750 0.770813 0.500000
v 0.550000 0.770813 0.500000
v 0.493750 0.733313 0.526250
v 0.493750 0.733313 0.531250
v 0.547969 0.757063 0.526250
v 0.512500 0.757063 0.526250
v 0.552500 0.720813 0.500000
v 0.547500 0.720813 0.500000
v 0.515000 0.720813 0.500000
v 0.512500 0.720813 0.500000
v 0.546875 0.765813 0.517500
v 0.512500 0.765813 0.517500
v 0.546875 0.765813 0.500000
v 0.512500 0.765813 0.500000
v 0.540000 0.702063 0.500000
v 0.515000 0.702063 0.500000
v 0.562500 0.720813 0.517500
v 0.487500 0.720813 0.517500
v 0.552500 0.720813 0.517500
v 0.547500 0.720813 0.517500
v 0.515000 0.720813 0.517500
v 0.512500 0.720813 0.517500
v 0.515000 0.702063 0.517500
v 0.560313 0.729563 0.526250
v 0.491875 0.729563 0.526250
v 0.551406 0.729563 0.526250
v 0.512500 0.729563 0.526250
v 0.540000 0.702063 0.517500
v 0.510000 0.757063 0.526250
v 0.510000 0.720813 0.500000
v 0.510000 0.765813 0.517500
v 0.510000 0.765813 0.500000
v 0.510000 0.720813 0.517500
v 0.510000 0.729563 0.526250
v 0.512500 0.729251 0.527500
v 0.512500 0.767063 0.517812
v 0.512500 0.767063 0.500000
v 0.512500 0.757376 0.527500
v 0.512500 0.719563 0.500000
v 0.512500 0.719563 0.517812
v 0.510000 0.719563 0.517812
v 0.510000 0.729251 0.527500
v 0.510000 0.757376 0.527500
v 0.510000 0.719563 0.500000
v 0.510000 0.767063 0.517812
v 0.510000 0.767063 0.500000
v 0.545469 0.757063 0.526250
v 0.550000 0.720813 0.500000
v 0.544375 0.765813 0.517500
v 0.544375 0.765813 0.500000
v 0.550000 0.720813 0.517500
v 0.548906 0.729563 0.526250
v 0.551406 0.729251 0.527500
v 0.546875 0.767063 0.517812
v 0.546875 0.767063 0.500000
v 0.547969 0.757376 0.527500
v 0.552500 0.719563 0.500000
v 0.552500 0.719563 0.517812
v 0.550000 0.719563 0.517812
v 0.548906 0.729251 0.527500
v 0.545469 0.757376 0.527500
v 0.550000 0.719563 0.500000
v 0.544375 0.767063 0.517812
v 0.544375 0.767063 0.500000
v 0.487500 0.689563 0.468750
v 0.551250 0.765813 0.482500
v 0.562500 0.689564 0.468750
v 0.493750 0.765813 0.482500
v 0.562500 0.720813 0.468750
v 0.487500 0.720813 0.468750
v 0.606250 0.689564 0.468750
v 0.600000 0.720813 0.468750
v 0.609375 0.711438 0.468750
v 0.609375 0.692688 0.468750
v 0.487500 0.683313 0.473750
v 0.493750 0.770813 0.481250
v 0.562500 0.683313 0.473750
v 0.550000 0.770813 0.481250
v 0.600000 0.683313 0.473750
v 0.493750 0.758313 0.468750
v 0.553125 0.758313 0.468750
v 0.553437 0.757063 0.473750
v 0.493750 0.757063 0.473750
v 0.493750 0.733313 0.473750
v 0.493750 0.733313 0.468750
v 0.547969 0.757063 0.473750
v 0.512500 0.757063 0.473750
v 0.546875 0.765813 0.482500
v 0.512500 0.765813 0.482500
v 0.562500 0.720813 0.482500
v 0.487500 0.720813 0.482500
v 0.552500 0.720813 0.482500
v 0.547500 0.720813 0.482500
v 0.515000 0.720813 0.482500
v 0.512500 0.720813 0.482500
v 0.515000 0.702063 0.482500
v 0.560313 0.729563 0.473750
v 0.491875 0.729563 0.473750
v 0.551406 0.729563 0.473750
v 0.512500 0.729563 0.473750
v 0.540000 0.702063 0.482500
v 0.510000 0.757063 0.473750
v 0.510000 0.765813 0.482500
v 0.510000 0.720813 0.482500
v 0.510000 0.729563 0.473750
v 0.512500 0.729251 0.472500
v 0.512500 0.767063 0.482188
v 0.512500 0.757376 0.472500
v 0.512500 0.719563 0.482188
v 0.510000 0.719563 0.482188
v 0.510000 0.729251 0.472500
v 0.510000 0.757376 0.472500
v 0.510000 0.767063 0.482188
v 0.545469 0.757063 0.473750
v 0.544375 0.765813 0.482500
v 0.550000 0.720813 0.482500
v 0.548906 0.729563 0.473750
v 0.551406 0.729251 0.472500
v 0.546875 0.767063 0.482188
v 0.547969 0.757376 0.472500
v 0.552500 0.719563 0.482188
v 0.550000 0.719563 0.482188
v 0.548906 0.729251 0.472500
v 0.545469 0.757376 0.472500
v 0.544375 0.767063 0.482188
vn -0.8944 0.4472 -0.0000
vn 0.9701 0.2425 -0.0000
vn -0.0000 0.7071 0.7071
vn -0.0000 -0.6247 0.7809
vn -0.0000 1.0000 -0.0000
vn -0.0000 -0.0000 1.0000
vn -1.0000 -0.0000 -0.0000
vn 0.7071 -0.7071 -0.0000
vn -0.0000 -1.0000 -0.0000
vn -0.0000 -0.7071 -0.7071
vn -0.0000 -0.0000 -1.0000
vn -0.0000 0.7071 -0.7071
vn -0.9285 0.3714 -0.0000
vn 1.0000 -0.0000 -0.0000
vn 0.9924 0.1227 -0.0000
vn -0.9965 -0.0591 -0.0591
vn -0.9924 -0.1227 -0.0000
vn 0.9965 0.0591 0.0591
vn -0.9965 -0.0591 0.0591
vn 0.9965 0.0591 -0.0591
vn 0.7071 0.7071 -0.0000
vn -0.0000 -0.6247 -0.7809
vn -0.0000 -0.7071 0.7071
vt 0.125000 0.843750
vt 0.109375 0.843750
vt 0.109375 0.828125
vt 0.125000 0.812500
vt 0.484375 0.906250
vt 0.500000 0.921875
vt 0.500000 0.937500
vt 0.468750 0.906250
vt 0.228641 0.937500
vt 0.135974 0.937500
vt 0.135974 0.906250
vt 0.233789 0.906250
vt 0.125678 0.721642
vt 0.249233 0.721642
vt 0.249233 0.736890
vt 0.125678 0.736890
vt 0.371196 0.887438
vt 0.343681 0.887438
vt 0.343681 0.812500
vt 0.406216 0.812500
vt 0.249233 0.812500
vt 0.125678 0.812500
vt 0.097500 0.812500
vt 0.115000 0.721642
vt 0.125000 0.736890
vt 0.250009 0.812500
vt 0.250009 0.736890
vt 0.337437 0.736890
vt 0.343681 0.744451
vt 0.250008 0.721642
vt 0.324947 0.721642
vt 0.228641 0.968750
vt 0.135974 0.968750
vt 0.135974 0.937500
vt 0.353687 0.721642
vt 0.406216 0.721642
vt 0.406216 0.744451
vt 0.531250 0.921875
vt 0.531250 0.937500
vt 0.125000 0.906250
vt 0.093750 0.937500
vt 0.093750 0.921875
vt 0.109375 0.906250
vt 0.249233 0.812500
vt 0.135974 0.847664
vt 0.496265 0.812500
vt 0.478756 0.843750
vt 0.468750 0.812500
vt 0.125678 0.656251
vt 0.250678 0.656251
vt 0.250678 0.708780
vt 0.125678 0.708780
vt 0.324849 0.656251
vt 0.324849 0.708780
vt 0.062500 0.937500
vt 0.062500 0.921875
vt 0.830769 0.917037
vt 0.874075 0.917037
vt 0.874075 0.950015
vt 0.830769 0.950015
vt 0.830769 0.996652
vt 0.874075 0.996652
vt 0.830769 0.843750
vt 0.879072 0.843750
vt 0.874075 0.853744
vt 0.478756 0.906250
vt 0.468750 0.906250
vt 0.635973 0.843750
vt 0.645514 0.843750
vt 0.647600 0.906250
vt 0.638433 0.906250
vt 0.786792 0.906250
vt 0.788545 0.843750
vt 0.793184 0.843750
vt 0.791924 0.906250
vt 0.615879 0.968750
vt 0.615879 0.937500
vt 0.623403 0.937500
vt 0.623403 0.968750
vt 0.694394 0.906250
vt 0.746631 0.906250
vt 0.746631 0.937500
vt 0.696127 0.937500
vt 0.612118 0.906250
vt 0.621522 0.906250
vt 0.746631 0.843750
vt 0.688948 0.843750
vt 0.662252 0.816269
vt 0.668510 0.816269
vt 0.668263 0.843750
vt 0.609375 0.706894
vt 0.609375 0.671875
vt 0.671875 0.671875
vt 0.671875 0.706894
vt 0.828125 0.671875
vt 0.828125 0.706894
vt 0.765625 0.706894
vt 0.765625 0.671875
vt 0.703059 0.671875
vt 0.742670 0.671875
vt 0.742670 0.706894
vt 0.703059 0.706894
vt 0.742670 0.796875
vt 0.691176 0.796875
vt 0.703059 0.734375
vt 0.742670 0.734375
vt 0.661927 0.781250
vt 0.667070 0.781250
vt 0.830769 0.781211
vt 0.890731 0.781211
vt 0.890731 0.816269
vt 0.830769 0.816269
vt 0.691176 0.816269
vt 0.742670 0.816269
vt 0.803305 0.843750
vt 0.802918 0.906250
vt 0.746631 0.968750
vt 0.696127 0.968750
vt 0.757720 0.781250
vt 0.762545 0.781250
vt 0.763110 0.816486
vt 0.755110 0.816357
vt 0.784991 0.937500
vt 0.790752 0.937500
vt 0.808500 0.781211
vt 0.807625 0.816269
vt 0.803407 0.816269
vt 0.803983 0.781171
vt 0.651575 0.906250
vt 0.650017 0.843750
vt 0.807962 0.843750
vt 0.794283 0.816269
vt 0.793610 0.781207
vt 0.808024 0.906250
vt 0.788731 0.968851
vt 0.802357 0.937500
vt 0.802485 0.968979
vt 0.808156 0.937500
vt 0.808500 0.968963
vt 0.782739 0.968750
vt 0.790049 0.816269
vt 0.789099 0.781250
vt 0.629816 0.816269
vt 0.630510 0.781250
vt 0.635797 0.781250
vt 0.634915 0.816269
vt 0.631478 0.843750
vt 0.632167 0.968750
vt 0.634530 0.937500
vt 0.639126 0.937500
vt 0.636952 0.968750
vt 0.653039 0.937500
vt 0.652575 0.968750
vt 0.647786 0.968750
vt 0.648422 0.937500
vt 0.645178 0.816269
vt 0.647758 0.781250
vt 0.634478 0.906250
vt 0.653039 0.781250
vt 0.650246 0.816269
vt 0.613639 0.812500
vt 0.615520 0.843750
vt 0.600205 0.843750
vt 0.596443 0.812500
vt 0.062500 0.812500
vt 0.062500 0.721642
vt 0.343681 0.789817
vt 0.324947 0.812500
vt 0.406250 0.744307
vt 0.406250 0.789672
vt 0.343681 0.789817
vt 0.343681 0.744451
vt 0.343681 0.736848
vt 0.406250 0.812356
vt 0.406216 0.907422
vt 0.371196 0.907422
vt 0.621431 0.906250
vt 0.612027 0.906250
vt 0.600205 0.843750
vt 0.233789 0.906250
vt 0.759083 0.843750
vt 0.000000 0.843750
vt 0.000000 0.812500
vt 0.015625 0.828125
vt 0.015625 0.843750
vt 0.578125 0.906250
vt 0.593750 0.906250
vt 0.562500 0.937500
vt 0.562500 0.921875
vt 0.125678 0.721642
vt 0.125678 0.736890
vt 0.249233 0.736890
vt 0.249233 0.721642
vt 0.441235 0.887438
vt 0.406216 0.812500
vt 0.468750 0.812500
vt 0.468750 0.887438
vt 0.125678 0.812500
vt 0.249233 0.812500
vt 0.000000 0.736890
vt 0.010000 0.721642
vt 0.027500 0.812500
vt 0.250008 0.812500
vt 0.337436 0.736890
vt 0.250008 0.736890
vt 0.250008 0.721642
vt 0.228641 1.000000
vt 0.135974 1.000000
vt 0.458745 0.721642
vt 0.000000 0.906250
vt 0.015625 0.906250
vt 0.031250 0.921875
vt 0.031250 0.937500
vt 0.249233 0.812500
vt 0.135974 0.847664
vt 0.566304 0.812500
vt 0.593819 0.812500
vt 0.583813 0.843750
vt 0.830769 0.917037
vt 0.830769 0.950015
vt 0.874075 0.950015
vt 0.874075 0.917037
vt 0.874075 0.996652
vt 0.830769 0.843750
vt 0.593819 0.906250
vt 0.583813 0.906250
vt 0.647601 0.906250
vt 0.645514 0.843750
vt 0.793184 0.843750
vt 0.788545 0.843750
vt 0.612118 0.906250
vt 0.621522 0.906250
vt 0.662236 0.816269
vt 0.668497 0.816269
vt 0.765625 0.671875
vt 0.828125 0.706894
vt 0.661897 0.781250
vt 0.667040 0.781250
vt 0.742670 0.816269
vt 0.691176 0.816269
vt 0.757645 0.781250
vt 0.755206 0.816146
vt 0.763219 0.816269
vt 0.762480 0.781250
vt 0.808500 0.781211
vt 0.794283 0.816269
vt 0.793610 0.781207
vt 0.782739 0.968750
vt 0.789099 0.781250
vt 0.634530 0.937500
vt 0.634478 0.906250
vt 0.650246 0.816269
vt 0.613639 0.812500
vt 0.596443 0.812500
vt 0.324947 0.812500
vt 0.468750 0.744307
vt 0.468750 0.789672
vt 0.468750 0.744451
vt 0.468750 0.736848
vt 0.468750 0.812356
vt 0.441235 0.907422
vt 0.612027 0.906250
vt 0.621431 0.906250
s 0
usemtl sight_holo
f 32/1/1 31/2/1 53/3/1 6/4/1
f 18/5/2 2/6/2 14/7/2 17/8/2
f 14/9/3 12/10/3 16/11/3 17/12/3
f 11/13/4 13/14/4 3/15/4 1/16/4
f 45/17/5 5/18/5 8/19/5 24/20/5
f 3/15/6 5/21/6 6/22/6 1/16/6
f 6/4/7 46/23/7 11/24/7 1/25/7
f 5/26/6 3/27/6 7/28/6 10/29/6
f 3/27/4 13/30/4 15/31/4 7/28/4
f 30/32/5 29/33/5 12/34/5 14/9/5
f 15/35/8 23/36/8 26/37/8
f 28/38/2 30/39/2 14/7/2 2/6/2
f 16/40/7 12/41/7 4/42/7 19/43/7
f 32/1/7 16/40/7 19/43/7 31/2/7
f 5/44/6 32/45/6 6/22/6
f 45/46/2 52/47/2 5/48/2
f 20/49/9 21/50/9 13/51/9 11/52/9
f 13/51/9 21/50/9 23/53/9 15/54/9
f 4/42/7 12/41/7 29/55/7 27/56/7
f 57/57/10 19/58/10 4/59/10 59/60/10
f 60/61/9 59/60/9 4/59/9 27/62/9
f 62/63/11 53/64/11 31/65/11
f 52/47/2 18/66/2 17/67/2 5/48/2
f 81/68/11 88/69/11 89/70/11 84/71/11
f 34/72/7 55/73/7 63/74/7 66/75/7
f 28/76/9 2/77/9 39/78/9 41/79/9
f 75/80/10 34/81/10 40/82/10 77/83/10
f 18/84/10 33/85/10 39/78/10 2/77/10
f 55/86/11 34/81/11 75/80/11 80/87/11
f 79/88/12 48/89/12 80/90/12
f 48/91/13 36/92/13 43/93/13 56/94/13
f 37/95/14 49/96/14 51/97/14 44/98/14
f 43/99/5 44/100/5 51/101/5 56/102/5
f 49/103/11 48/104/11 56/105/11 51/106/11
f 76/107/5 36/108/5 48/89/5 79/88/5
f 62/63/11 31/65/11 19/58/11 57/57/11
f 58/109/5 22/110/5 46/111/5 61/112/5
f 55/86/12 80/87/12 48/113/12 49/114/12
f 70/115/11 71/116/11 66/75/11 63/74/11
f 77/83/9 40/82/9 42/117/9 78/118/9
f 37/119/5 38/120/5 50/121/5 49/122/5
f 53/64/12 62/63/12 61/112/12 46/111/12
f 40/123/7 34/72/7 66/75/7 64/124/7
f 58/125/14 61/126/14 69/127/14 72/128/14
f 75/129/15 89/70/15 88/69/15 80/130/15
f 61/126/14 62/131/14 70/115/14 69/127/14
f 70/115/12 63/74/12 68/132/12 69/127/12
f 67/133/5 72/128/5 69/127/5 68/132/5
f 62/131/14 57/134/14 71/116/14 70/115/14
f 65/135/9 64/124/9 73/136/9 74/137/9
f 66/75/10 71/116/10 73/136/10 64/124/10
f 59/138/14 60/139/14 74/137/14 73/136/14
f 57/134/14 59/138/14 73/136/14 71/116/14
f 42/140/7 40/123/7 64/124/7 65/135/7
f 55/73/7 50/141/7 68/132/7 63/74/7
f 50/141/7 38/142/7 67/133/7 68/132/7
f 47/143/7 35/144/7 85/145/7 86/146/7
f 54/147/16 47/143/16 86/146/16 81/68/16
f 41/148/7 39/149/7 82/150/7 83/151/7
f 77/152/14 78/153/14 92/154/14 91/155/14
f 87/156/12 88/69/12 81/68/12 86/146/12
f 85/145/5 90/157/5 87/156/5 86/146/5
f 54/147/17 81/68/17 84/71/17 33/158/17
f 84/71/10 89/70/10 91/155/10 82/150/10
f 83/151/9 82/150/9 91/155/9 92/154/9
f 76/159/14 79/160/14 87/156/14 90/157/14
f 47/161/12 54/162/12 52/163/12 45/164/12
f 79/160/18 80/130/18 88/69/18 87/156/18
f 39/149/19 33/158/19 84/71/19 82/150/19
f 75/129/20 77/152/20 91/155/20 89/70/20
f 46/23/7 22/165/7 20/166/7 11/24/7
f 46/23/1 6/4/1 53/3/1
f 5/26/6 10/29/6 9/167/6 8/168/6
f 26/169/14 25/170/14 9/171/14 10/172/14
f 10/172/8 7/173/8 15/35/8 26/37/8
f 25/170/21 24/174/21 8/19/21 9/171/21
f 24/20/5 35/175/5 47/176/5 45/17/5
f 54/162/11 33/177/11 18/178/11 52/179/11
f 17/180/6 16/11/6 32/45/6 5/44/6
f 50/121/12 55/181/12 49/122/12
f 113/182/1 98/183/1 126/184/1 112/185/1
f 110/186/2 109/187/2 106/188/2 94/189/2
f 106/9/12 109/12/12 108/11/12 104/10/12
f 103/190/22 93/191/22 95/192/22 105/193/22
f 118/194/5 24/195/5 100/196/5 97/197/5
f 95/192/11 93/191/11 98/198/11 97/199/11
f 98/183/7 93/200/7 103/201/7 119/202/7
f 97/203/11 102/29/11 99/204/11 95/205/11
f 95/205/22 99/204/22 107/31/22 105/206/22
f 30/32/5 106/207/5 104/208/5 29/33/5
f 107/209/8 26/37/8 23/36/8
f 28/38/2 94/189/2 106/188/2 30/39/2
f 108/210/7 111/211/7 96/212/7 104/213/7
f 113/182/7 112/185/7 111/211/7 108/210/7
f 97/214/11 98/198/11 113/215/11
f 118/216/2 97/217/2 125/218/2
f 20/49/9 103/52/9 105/51/9 21/50/9
f 105/51/9 107/54/9 23/53/9 21/50/9
f 96/212/7 27/56/7 29/55/7 104/213/7
f 130/219/23 131/220/23 96/221/23 111/222/23
f 60/61/9 27/223/9 96/221/9 131/220/9
f 133/224/6 112/65/6 126/64/6
f 125/218/2 97/217/2 109/225/2 110/226/2
f 146/68/6 148/71/6 152/227/6 151/228/6
f 115/72/7 136/75/7 134/229/7 128/230/7
f 28/76/9 41/79/9 116/78/9 94/77/9
f 142/80/23 143/83/23 117/82/23 115/81/23
f 110/231/23 94/77/23 116/78/23 114/232/23
f 128/86/6 145/87/6 142/80/6 115/81/6
f 144/233/3 145/90/3 121/234/3
f 121/91/13 129/94/13 43/93/13 36/92/13
f 37/95/14 44/235/14 124/97/14 122/236/14
f 43/99/5 129/102/5 124/101/5 44/100/5
f 122/103/6 124/106/6 129/105/6 121/104/6
f 76/237/5 144/233/5 121/234/5 36/238/5
f 133/224/6 130/219/6 111/222/6 112/65/6
f 58/109/5 132/112/5 119/111/5 22/110/5
f 128/86/3 122/239/3 121/240/3 145/87/3
f 139/115/6 134/229/6 136/75/6 140/116/6
f 143/83/9 78/118/9 42/117/9 117/82/9
f 37/241/5 122/242/5 123/243/5 38/244/5
f 126/64/3 119/111/3 132/112/3 133/224/3
f 117/123/7 135/124/7 136/75/7 115/72/7
f 58/245/14 72/128/14 138/127/14 132/126/14
f 142/129/15 145/130/15 151/228/15 152/227/15
f 132/126/14 138/127/14 139/115/14 133/131/14
f 139/115/3 138/127/3 137/246/3 134/229/3
f 67/247/5 137/246/5 138/127/5 72/128/5
f 133/131/14 139/115/14 140/116/14 130/134/14
f 65/135/9 74/137/9 141/136/9 135/124/9
f 136/75/23 135/124/23 141/136/23 140/116/23
f 131/138/14 141/136/14 74/137/14 60/139/14
f 130/134/14 140/116/14 141/136/14 131/138/14
f 42/248/7 65/135/7 135/124/7 117/123/7
f 128/230/7 134/229/7 137/246/7 123/141/7
f 123/141/7 137/246/7 67/247/7 38/249/7
f 120/143/7 149/146/7 85/145/7 35/144/7
f 127/147/19 146/68/19 149/146/19 120/143/19
f 41/148/7 83/151/7 147/150/7 116/250/7
f 143/152/14 153/155/14 92/154/14 78/153/14
f 150/156/3 149/146/3 146/68/3 151/228/3
f 85/145/5 149/146/5 150/156/5 90/157/5
f 127/147/17 114/251/17 148/71/17 146/68/17
f 148/71/23 147/150/23 153/155/23 152/227/23
f 83/151/9 92/154/9 153/155/9 147/150/9
f 76/159/14 90/157/14 150/156/14 144/252/14
f 120/253/3 118/254/3 125/163/3 127/162/3
f 144/252/20 150/156/20 151/228/20 145/130/20
f 116/250/16 147/150/16 148/71/16 114/251/16
f 142/129/18 152/227/18 153/155/18 143/152/18
f 119/202/7 103/201/7 20/166/7 22/165/7
f 119/202/1 126/184/1 98/183/1
f 97/203/11 100/255/11 101/167/11 102/29/11
f 26/169/14 102/256/14 101/257/14 25/170/14
f 102/258/8 26/37/8 107/209/8 99/259/8
f 25/170/21 101/257/21 100/260/21 24/174/21
f 24/195/5 118/194/5 120/261/5 35/175/5
f 127/162/6 125/179/6 110/262/6 114/263/6
f 109/180/11 97/214/11 113/215/11 108/11/11
f 123/243/3 122/242/3 128/181/3
