# Blender 5.1.1
# www.blender.org
mtllib knobs.mtl
o holo_roll
v 0.593750 0.716563 0.536250
v 0.593750 0.716563 0.525000
v 0.581572 0.709531 0.536250
v 0.581572 0.709531 0.525000
v 0.581572 0.695469 0.536250
v 0.581572 0.695469 0.525000
v 0.593750 0.688437 0.536250
v 0.593750 0.688438 0.525000
v 0.605928 0.695469 0.536250
v 0.605928 0.695469 0.525000
v 0.605928 0.709531 0.536250
v 0.605928 0.709531 0.525000
vn -0.5000 0.8660 -0.0000
vn -1.0000 -0.0000 -0.0000
vn -0.5000 -0.8660 -0.0000
vn 0.5000 -0.8660 -0.0000
vn 1.0000 -0.0000 -0.0000
vn 0.5000 0.8660 -0.0000
vn -0.0000 -0.0000 1.0000
vt 0.375000 0.453125
vt 0.375000 0.468750
vt 0.343750 0.468750
vt 0.343750 0.453125
vt 0.312500 0.468750
vt 0.312500 0.453125
vt 0.312500 0.421875
vt 0.312500 0.406250
vt 0.343750 0.406250
vt 0.343750 0.421875
vt 0.375000 0.406250
vt 0.375000 0.421875
vt 0.406250 0.406250
vt 0.406250 0.421875
vt 0.406250 0.453125
vt 0.406250 0.468750
vt 0.390625 0.437500
vt 0.328125 0.437500
vt 0.375000 0.421875
vt 0.375000 0.453125
vt 0.343750 0.453125
s 0
usemtl sight_holo
f 1/1/1 2/2/1 4/3/1 3/4/1
f 3/4/2 4/3/2 6/5/2 5/6/2
f 5/7/3 6/8/3 8/9/3 7/10/3
f 7/10/4 8/9/4 10/11/4 9/12/4
f 9/12/5 10/11/5 12/13/5 11/14/5
f 11/15/6 12/16/6 2/2/6 1/1/6
f 11/17/7 5/18/7 7/10/7 9/19/7
f 1/20/7 3/21/7 5/18/7 11/17/7
o holo_knob1
v 0.509570 0.707448 0.536250
v 0.511198 0.716680 0.536250
v 0.509570 0.707448 0.531250
v 0.511198 0.716680 0.531250
v 0.518802 0.705820 0.536250
v 0.520430 0.715052 0.536250
v 0.518802 0.705820 0.531250
v 0.520430 0.715052 0.531250
vn -0.9848 0.1736 -0.0000
vn 0.9848 -0.1736 -0.0000
vn -0.0000 -0.0000 1.0000
vn -0.1736 -0.9848 -0.0000
vn 0.1736 0.9848 -0.0000
vt 0.351042 0.375000
vt 0.351042 0.406250
vt 0.367708 0.406250
vt 0.367708 0.375000
vt 0.375000 0.375000
vt 0.375000 0.406250
vt 0.343750 0.406250
vt 0.343750 0.375000
vt 0.343750 0.398958
vt 0.375000 0.398958
vt 0.375000 0.382292
vt 0.343750 0.382292
s 0
usemtl sight_holo
f 13/22/8 14/23/8 16/24/8 15/25/8
f 19/25/9 20/24/9 18/23/9 17/22/9
f 17/26/10 18/27/10 14/28/10 13/29/10
f 15/30/11 19/31/11 17/32/11 13/33/11
f 20/31/12 16/30/12 14/33/12 18/32/12
o holo_knob2
v 0.542034 0.698597 0.536250
v 0.537347 0.706716 0.536250
v 0.542034 0.698597 0.531250
v 0.537347 0.706716 0.531250
v 0.550153 0.703284 0.536250
v 0.545466 0.711403 0.536250
v 0.550153 0.703284 0.531250
v 0.545466 0.711403 0.531250
vn -0.8660 -0.5000 -0.0000
vn 0.8660 0.5000 -0.0000
vn -0.0000 -0.0000 1.0000
vn 0.5000 -0.8660 -0.0000
vn -0.5000 0.8660 -0.0000
vt 0.351042 0.343750
vt 0.351042 0.375000
vt 0.367708 0.375000
vt 0.367708 0.343750
vt 0.375000 0.343750
vt 0.375000 0.375000
vt 0.343750 0.375000
vt 0.343750 0.343750
vt 0.343750 0.367708
vt 0.375000 0.367708
vt 0.375000 0.351042
vt 0.343750 0.351042
s 0
usemtl sight_holo
f 21/34/13 22/35/13 24/36/13 23/37/13
f 27/37/14 28/36/14 26/35/14 25/34/14
f 25/38/15 26/39/15 22/40/15 21/41/15
f 23/42/16 27/43/16 25/44/16 21/45/16
f 28/43/17 24/42/17 22/45/17 26/44/17
