# Blender 5.1.1
# www.blender.org
mtllib barrel3.mtl
o barrel_upper.003
v 0.500000 0.677063 0.515625
v 0.500000 0.683313 0.515625
v 0.500000 0.677063 0.484375
v 0.500000 0.683313 0.484375
v 0.525000 0.677063 0.515625
v 0.525000 0.683313 0.515625
v 0.525000 0.677063 0.484375
v 0.525000 0.683313 0.484375
v 0.550000 0.677063 0.515625
v 0.550000 0.683313 0.515625
v 0.550000 0.677063 0.484375
v 0.550000 0.683313 0.484375
v 0.575000 0.677063 0.515625
v 0.575000 0.683313 0.515625
v 0.575000 0.677063 0.484375
v 0.575000 0.683313 0.484375
v 0.600000 0.677063 0.515625
v 0.600000 0.683313 0.515625
v 0.600000 0.677063 0.484375
v 0.600000 0.683313 0.484375
v 0.625000 0.677063 0.515625
v 0.625000 0.683313 0.515625
v 0.625000 0.677063 0.484375
v 0.625000 0.683313 0.484375
v 0.650000 0.677063 0.515625
v 0.650000 0.683313 0.515625
v 0.650000 0.677063 0.484375
v 0.650000 0.683313 0.484375
v 0.675000 0.677063 0.515625
v 0.675000 0.683313 0.515625
v 0.675000 0.677063 0.484375
v 0.675000 0.683313 0.484375
v 0.700000 0.677063 0.515625
v 0.700000 0.683313 0.515625
v 0.700000 0.677063 0.484375
v 0.700000 0.683313 0.484375
v 0.725000 0.677063 0.515625
v 0.725000 0.683313 0.515625
v 0.725000 0.677063 0.484375
v 0.725000 0.683313 0.484375
v 0.750000 0.677063 0.515625
v 0.750000 0.683313 0.515625
v 0.750000 0.677063 0.484375
v 0.750000 0.683313 0.484375
v 0.775000 0.677063 0.515625
v 0.775000 0.683313 0.515625
v 0.775000 0.677063 0.484375
v 0.775000 0.683313 0.484375
v 1.200000 0.683313 0.494792
v 1.200000 0.677063 0.484375
v 1.175000 0.677063 0.515625
v 1.200000 0.683313 0.505208
v 1.200000 0.677063 0.515625
v 1.175000 0.683313 0.494792
v 1.175000 0.677063 0.484375
v 1.175000 0.683313 0.505208
v 1.200000 0.695813 0.494792
v 1.200000 0.695813 0.505208
v 1.193750 0.695813 0.505208
v 1.193750 0.695813 0.494792
v 1.050000 0.677063 0.515625
v 1.050000 0.683313 0.515625
v 1.050000 0.677063 0.484375
v 1.050000 0.683313 0.484375
v 1.075000 0.677063 0.515625
v 1.075000 0.683313 0.515625
v 1.075000 0.677063 0.484375
v 1.075000 0.683313 0.484375
v 1.100000 0.677063 0.515625
v 1.100000 0.683313 0.515625
v 1.100000 0.677063 0.484375
v 1.100000 0.683313 0.484375
v 1.125000 0.677063 0.515625
v 1.125000 0.683313 0.515625
v 1.125000 0.677063 0.484375
v 1.125000 0.683313 0.484375
v 0.900000 0.677063 0.515625
v 0.900000 0.683313 0.515625
v 0.900000 0.677063 0.484375
v 0.900000 0.683313 0.484375
v 0.925000 0.677063 0.515625
v 0.925000 0.683313 0.515625
v 0.925000 0.677063 0.484375
v 0.925000 0.683313 0.484375
v 0.950000 0.677063 0.515625
v 0.950000 0.683313 0.515625
v 0.950000 0.677063 0.484375
v 0.950000 0.683313 0.484375
v 0.975000 0.677063 0.515625
v 0.975000 0.683313 0.515625
v 0.975000 0.677063 0.484375
v 0.975000 0.683313 0.484375
v 1.000000 0.677063 0.515625
v 1.000000 0.683313 0.515625
v 1.000000 0.677063 0.484375
v 1.000000 0.683313 0.484375
v 1.025000 0.677063 0.515625
v 1.025000 0.683313 0.515625
v 1.025000 0.677063 0.484375
v 1.025000 0.683313 0.484375
v 0.850000 0.677063 0.515625
v 0.850000 0.683313 0.515625
v 0.850000 0.677063 0.484375
v 0.850000 0.683313 0.484375
v 0.875000 0.677063 0.515625
v 0.875000 0.683313 0.515625
v 0.875000 0.677063 0.484375
v 0.875000 0.683313 0.484375
v 0.800000 0.677063 0.515625
v 0.800000 0.683313 0.515625
v 0.800000 0.677063 0.484375
v 0.800000 0.683313 0.484375
v 0.825000 0.677063 0.515625
v 0.825000 0.683313 0.515625
v 0.825000 0.677063 0.484375
v 0.825000 0.683313 0.484375
vn -1.0000 -0.0000 -0.0000
vn -0.0000 -0.0000 -1.0000
vn 1.0000 -0.0000 -0.0000
vn -0.0000 -0.0000 1.0000
vn -0.0000 1.0000 -0.0000
vn -0.0000 0.8575 -0.5145
vn -0.0000 0.8575 0.5145
vn -0.5547 0.8320 -0.0000
vt 0.097656 0.972661
vt 0.097656 0.996005
vt 0.097656 0.996130
vt 0.121094 0.996130
vt 0.121094 0.972661
vt 0.121094 0.996005
vt 0.121094 0.996130
vt 0.097656 0.972661
vt 0.160156 0.972661
vt 0.160156 0.996005
vt 0.160156 0.996130
vt 0.183594 0.996130
vt 0.183594 0.972661
vt 0.183594 0.996005
vt 0.183594 0.996130
vt 0.160156 0.996130
vt 0.222656 0.972661
vt 0.222656 0.996005
vt 0.222656 0.996130
vt 0.246094 0.996130
vt 0.246094 0.972661
vt 0.246094 0.996005
vt 0.285156 0.972661
vt 0.285156 0.996005
vt 0.285156 0.996130
vt 0.308594 0.996130
vt 0.308594 0.972661
vt 0.308594 0.972661
vt 0.308594 0.996005
vt 0.347656 0.972661
vt 0.347656 0.996005
vt 0.347656 0.996130
vt 0.371094 0.996130
vt 0.371094 0.972661
vt 0.371094 0.996005
vt 0.410156 0.972661
vt 0.410156 0.996005
vt 0.410156 0.996130
vt 0.433594 0.996130
vt 0.433594 0.972661
vt 0.433594 0.996005
vt 0.410156 0.996130
vt 0.410156 0.972661
vt 0.445312 0.957031
vt 0.445312 0.968750
vt 0.492188 0.968750
vt 0.492188 0.957031
vt 0.492188 0.992188
vt 0.480469 0.992188
vt 0.691406 0.972661
vt 0.691406 0.996005
vt 0.691406 0.996130
vt 0.714844 0.996130
vt 0.714844 0.972661
vt 0.714844 0.996005
vt 0.691406 0.996130
vt 0.691406 0.972661
vt 0.722656 0.972661
vt 0.722656 0.996005
vt 0.722656 0.996130
vt 0.746094 0.996130
vt 0.746094 0.972661
vt 0.746094 0.996005
vt 0.722656 0.996130
vt 0.722656 0.972661
vt 0.597656 0.972661
vt 0.597656 0.996005
vt 0.597656 0.996130
vt 0.621094 0.996130
vt 0.621094 0.972661
vt 0.621094 0.996005
vt 0.597656 0.996130
vt 0.597656 0.972661
vt 0.628906 0.972661
vt 0.628906 0.996005
vt 0.628906 0.996130
vt 0.652344 0.996130
vt 0.652344 0.972661
vt 0.652344 0.996005
vt 0.628906 0.996130
vt 0.628906 0.972661
vt 0.660156 0.972661
vt 0.660156 0.996005
vt 0.660156 0.996130
vt 0.683594 0.996130
vt 0.683594 0.972661
vt 0.683594 0.996005
vt 0.660156 0.996130
vt 0.660156 0.972661
vt 0.566406 0.972661
vt 0.566406 0.996005
vt 0.566406 0.996130
vt 0.589844 0.996130
vt 0.589844 0.972661
vt 0.589844 0.996005
vt 0.566406 0.996130
vt 0.566406 0.972661
vt 0.535156 0.972661
vt 0.535156 0.996005
vt 0.535156 0.996130
vt 0.558594 0.996130
vt 0.558594 0.972661
vt 0.558594 0.996005
vt 0.535156 0.996130
vt 0.535156 0.972661
s 0
usemtl barrel.002
f 1/1/1 2/2/1 4/2/1 3/1/1
f 3/1/2 4/3/2 8/4/2 7/5/2
f 7/5/3 8/6/3 6/6/3 5/5/3
f 5/5/4 6/7/4 2/3/4 1/8/4
f 8/6/5 4/2/5 2/3/5 6/7/5
f 9/9/1 10/10/1 12/10/1 11/9/1
f 11/9/2 12/11/2 16/12/2 15/13/2
f 15/13/3 16/14/3 14/14/3 13/13/3
f 13/13/4 14/15/4 10/16/4 9/9/4
f 16/14/5 12/10/5 10/16/5 14/15/5
f 17/17/1 18/18/1 20/18/1 19/17/1
f 19/17/2 20/19/2 24/20/2 23/21/2
f 23/21/3 24/22/3 22/22/3 21/21/3
f 21/21/4 22/20/4 18/19/4 17/17/4
f 24/22/5 20/18/5 18/19/5 22/20/5
f 25/23/1 26/24/1 28/24/1 27/23/1
f 27/23/2 28/25/2 32/26/2 31/27/2
f 31/28/3 32/29/3 30/29/3 29/28/3
f 29/28/4 30/26/4 26/25/4 25/23/4
f 32/29/5 28/24/5 26/25/5 30/26/5
f 33/30/1 34/31/1 36/31/1 35/30/1
f 35/30/2 36/32/2 40/33/2 39/34/2
f 39/34/3 40/35/3 38/35/3 37/34/3
f 37/34/4 38/33/4 34/32/4 33/30/4
f 40/35/5 36/31/5 34/32/5 38/33/5
f 41/36/1 42/37/1 44/37/1 43/36/1
f 43/36/2 44/38/2 48/39/2 47/40/2
f 47/40/3 48/41/3 46/41/3 45/40/3
f 45/40/4 46/39/4 42/42/4 41/43/4
f 48/41/5 44/37/5 42/42/5 46/39/5
f 55/44/6 54/45/6 49/46/6 50/47/6
f 53/47/7 52/46/7 56/45/7 51/44/7
f 50/47/3 49/46/3 52/46/3 53/47/3
f 51/44/1 56/45/1 54/45/1 55/44/1
f 56/45/4 52/46/4 58/48/4 59/49/4
f 57/48/5 60/49/5 59/49/5 58/48/5
f 54/45/8 56/45/8 59/49/8 60/49/8
f 52/46/3 49/46/3 57/48/3 58/48/3
f 49/46/2 54/45/2 60/49/2 57/48/2
f 61/50/1 62/51/1 64/51/1 63/50/1
f 63/50/2 64/52/2 68/53/2 67/54/2
f 67/54/3 68/55/3 66/55/3 65/54/3
f 65/54/4 66/53/4 62/56/4 61/57/4
f 68/55/5 64/51/5 62/56/5 66/53/5
f 69/58/1 70/59/1 72/59/1 71/58/1
f 71/58/2 72/60/2 76/61/2 75/62/2
f 75/62/3 76/63/3 74/63/3 73/62/3
f 73/62/4 74/61/4 70/64/4 69/65/4
f 76/63/5 72/59/5 70/64/5 74/61/5
f 77/66/1 78/67/1 80/67/1 79/66/1
f 79/66/2 80/68/2 84/69/2 83/70/2
f 83/70/3 84/71/3 82/71/3 81/70/3
f 81/70/4 82/69/4 78/72/4 77/73/4
f 84/71/5 80/67/5 78/72/5 82/69/5
f 85/74/1 86/75/1 88/75/1 87/74/1
f 87/74/2 88/76/2 92/77/2 91/78/2
f 91/78/3 92/79/3 90/79/3 89/78/3
f 89/78/4 90/77/4 86/80/4 85/81/4
f 92/79/5 88/75/5 86/80/5 90/77/5
f 93/82/1 94/83/1 96/83/1 95/82/1
f 95/82/2 96/84/2 100/85/2 99/86/2
f 99/86/3 100/87/3 98/87/3 97/86/3
f 97/86/4 98/85/4 94/88/4 93/89/4
f 100/87/5 96/83/5 94/88/5 98/85/5
f 101/90/1 102/91/1 104/91/1 103/90/1
f 103/90/2 104/92/2 108/93/2 107/94/2
f 107/94/3 108/95/3 106/95/3 105/94/3
f 105/94/4 106/93/4 102/96/4 101/97/4
f 108/95/5 104/91/5 102/96/5 106/93/5
f 109/98/1 110/99/1 112/99/1 111/98/1
f 111/98/2 112/100/2 116/101/2 115/102/2
f 115/102/3 116/103/3 114/103/3 113/102/3
f 113/102/4 114/101/4 110/104/4 109/105/4
f 116/103/5 112/99/5 110/104/5 114/101/5
o barrel.003
v 0.387500 0.650000 0.468750
v 0.750000 0.650000 0.468750
v 0.387500 0.622937 0.484375
v 0.750000 0.622937 0.484375
v 0.387500 0.622937 0.515625
v 0.750000 0.622937 0.515625
v 0.387500 0.650000 0.531250
v 0.750000 0.650000 0.531250
v 0.387500 0.677063 0.515625
v 0.750000 0.677063 0.515625
v 0.387500 0.677063 0.484375
v 0.750000 0.677063 0.484375
v 0.387500 0.666915 0.490234
v 0.387500 0.650000 0.480469
v 0.750000 0.650000 0.480469
v 0.750000 0.666915 0.490234
v 0.750000 0.666915 0.509766
v 0.750000 0.650000 0.519531
v 0.750000 0.633085 0.509766
v 0.750000 0.633085 0.490234
v 0.387500 0.633085 0.490234
v 0.387500 0.666915 0.509766
v 0.387500 0.650000 0.519531
v 0.387500 0.633085 0.509766
v 0.750000 0.562500 0.476562
v 0.750000 0.586857 0.462500
v 0.750000 0.562500 0.523438
v 0.750000 0.586857 0.537500
v 0.750000 0.639175 0.537500
v 0.750000 0.612099 0.478118
v 0.750000 0.612112 0.521875
v 0.750000 0.639150 0.462500
v 0.775000 0.650000 0.531250
v 0.775000 0.650000 0.468750
v 0.775000 0.677063 0.484375
v 0.775000 0.677063 0.515625
v 0.775000 0.586857 0.537500
v 0.775000 0.562500 0.523438
v 0.775000 0.562500 0.476562
v 0.775000 0.586857 0.462500
v 0.775000 0.639150 0.462500
v 0.775000 0.639175 0.537500
v 0.775000 0.612099 0.478118
v 0.775000 0.612112 0.521875
v 0.775000 0.622937 0.515625
v 0.775000 0.622937 0.484375
v 0.475000 0.650000 0.468750
v 0.475000 0.622937 0.484375
v 0.475000 0.622937 0.515625
v 0.475000 0.650000 0.531250
v 0.475000 0.677063 0.515625
v 0.475000 0.677063 0.484375
v 0.468750 0.656250 0.531250
v 0.387500 0.656250 0.531250
v 0.387500 0.683313 0.515625
v 0.468750 0.683313 0.515625
v 0.387500 0.683313 0.484375
v 0.468750 0.683313 0.484375
v 0.387500 0.656250 0.468750
v 0.468750 0.656250 0.468750
v 0.475000 0.683313 0.515625
v 0.475000 0.683313 0.484375
v 0.775000 0.650000 0.519531
v 0.775000 0.666915 0.509766
v 0.775000 0.633085 0.490234
v 0.775000 0.650000 0.480469
v 0.775000 0.633085 0.509766
v 0.775000 0.666915 0.490234
v 0.775000 0.670482 0.511826
v 0.775000 0.629517 0.488174
v 0.775000 0.650000 0.523651
v 0.775000 0.650000 0.476349
v 0.775000 0.629517 0.511826
v 0.775000 0.670482 0.488174
v 0.475000 0.633085 0.509766
v 0.475000 0.650000 0.519531
v 0.475000 0.666915 0.509766
v 0.475000 0.633085 0.490234
v 0.475000 0.666915 0.490234
v 0.475000 0.650000 0.480469
v 1.150000 0.650000 0.468750
v 1.206250 0.650000 0.468750
v 1.206250 0.622937 0.484375
v 1.206250 0.622937 0.515625
v 1.206250 0.650000 0.531250
v 1.206250 0.677063 0.515625
v 1.206250 0.677063 0.484375
v 1.206250 0.629517 0.511826
v 1.150000 0.677063 0.484375
v 1.150000 0.677063 0.515625
v 1.150000 0.562500 0.523438
v 1.168750 0.562500 0.523438
v 1.150000 0.586857 0.462500
v 1.168750 0.586857 0.462500
v 1.168750 0.562500 0.476562
v 1.168750 0.586857 0.537500
v 1.206250 0.639175 0.537500
v 1.206250 0.612112 0.521875
v 1.206250 0.612099 0.478118
v 1.206250 0.639150 0.462500
v 1.150000 0.639175 0.537500
v 1.150000 0.650000 0.531250
v 1.150000 0.586857 0.537500
v 1.150000 0.562500 0.476562
v 1.150000 0.639150 0.462500
v 1.206250 0.650000 0.523651
v 1.206250 0.670482 0.511826
v 1.150000 0.670482 0.511826
v 1.206250 0.629517 0.488174
v 1.206250 0.650000 0.476349
v 1.206250 0.670482 0.488174
v 1.150000 0.629517 0.488174
v 1.150000 0.650000 0.523651
v 1.150000 0.650000 0.476349
v 1.150000 0.629517 0.511826
v 1.150000 0.670482 0.488174
vn -0.0000 -0.5000 -0.8660
vn -0.0000 -1.0000 -0.0000
vn -0.0000 -0.5000 0.8660
vn -0.0000 0.5000 0.8660
vn -0.0000 1.0000 -0.0000
vn -0.0000 0.5000 -0.8660
vn -1.0000 -0.0000 -0.0000
vn 1.0000 -0.0000 -0.0000
vn -0.0000 -0.0000 1.0000
vn -0.0000 -0.0000 -1.0000
vn -0.0000 0.4992 -0.8665
vn -0.0000 -0.0315 -0.9995
vn -0.0000 -0.0313 0.9995
vn 0.4472 0.4472 -0.7746
vn 0.4472 0.4472 0.7746
vn 0.7977 -0.6030 0.0001
vn 0.5721 -0.4101 0.7103
vn 0.5719 -0.4101 -0.7104
vt 0.093750 0.906250
vt 0.265625 0.906250
vt 0.265625 0.937500
vt 0.093750 0.937500
vt 0.265625 0.968750
vt 0.093750 0.968750
vt 0.093750 0.781250
vt 0.265625 0.781250
vt 0.265625 0.812500
vt 0.093750 0.812500
vt 0.265625 0.843750
vt 0.093750 0.843750
vt 0.265625 0.875000
vt 0.093750 0.875000
vt 0.031250 0.781250
vt 0.031250 0.812500
vt 0.000000 0.937500
vt 0.000000 0.906250
vt 0.031250 0.906250
vt 0.031250 0.937500
vt 0.015625 0.906250
vt 0.000000 0.875000
vt 0.015625 0.875000
vt 0.031250 0.968750
vt 0.000000 0.968750
vt 0.000000 0.843750
vt 0.015625 0.843750
vt 0.000000 0.812500
vt 0.015625 0.812500
vt 0.000000 0.781250
vt 0.296875 0.937500
vt 0.296875 0.968750
vt 0.312500 0.968750
vt 0.312500 0.937500
vt 0.296875 0.906250
vt 0.312500 0.906250
vt 0.031250 0.843750
vt 0.031250 0.875000
vt 0.296875 0.843750
vt 0.296875 0.875000
vt 0.312500 0.875000
vt 0.312500 0.843750
vt 0.296875 0.812500
vt 0.312500 0.812500
vt 0.312500 0.781250
vt 0.296875 0.781250
vt 0.296875 0.718750
vt 0.312500 0.718750
vt 0.281250 0.750000
vt 0.281250 0.687500
vt 0.562500 0.718750
vt 0.562500 0.781250
vt 0.750000 0.781250
vt 0.750000 0.718750
vt 0.562500 0.906250
vt 0.562500 0.875000
vt 0.750000 0.875000
vt 0.750000 0.906250
vt 0.562500 0.812500
vt 0.750000 0.812500
vt 0.750000 0.781250
vt 0.281250 0.812500
vt 0.281250 0.781250
vt 0.562500 0.937500
vt 0.750000 0.937500
vt 0.281250 0.906250
vt 0.281250 0.937500
vt 0.562500 0.843750
vt 0.750000 0.843750
vt 0.250000 0.781250
vt 0.250000 0.750000
vt 0.750000 0.937500
vt 0.750000 0.781250
vt 0.750000 0.812500
vt 0.296875 0.687500
vt 0.312500 0.687500
vt 0.281250 0.843750
vt 0.281250 0.875000
vt 0.250000 0.687500
vt 0.187500 0.750000
vt 0.187500 0.687500
vt 0.234375 0.781250
vt 0.203125 0.781250
vt 0.156250 0.750000
vt 0.156250 0.687500
vt 0.156250 0.781250
vt 0.187500 0.781250
vt 0.281250 0.968750
vt 0.089286 0.890625
vt 0.089286 0.875000
vt 0.089286 0.828125
vt 0.031250 0.828125
vt 0.089286 0.843750
vt 0.031250 0.890625
vt 0.091518 0.851562
vt 0.091518 0.867188
vt 0.562500 0.687500
vt 0.562500 0.656250
vt 0.750000 0.656250
vt 0.750000 0.687500
vt 0.562500 0.968750
vt 0.750000 0.968750
vt 0.421875 0.781250
vt 0.437500 0.781250
vt 0.437500 0.812500
vt 0.421875 0.812500
vt 0.468750 0.781250
vt 0.437500 0.718750
vt 0.468750 0.718750
vt 0.421875 0.937500
vt 0.437500 0.937500
vt 0.437500 0.968750
vt 0.421875 0.968750
vt 0.406250 0.875000
vt 0.406250 0.906250
vt 0.406250 0.812500
vt 0.437500 0.843750
vt 0.406250 0.843750
vt 0.437500 0.687500
vt 0.468750 0.687500
vt 0.343750 0.687500
vt 0.343750 0.718750
vt 0.406250 0.781250
vt 0.406250 0.718750
vt 0.500000 0.781250
vt 0.500000 0.718750
vt 0.421875 0.906250
vt 0.406250 0.937500
vt 0.406250 0.968750
vt 0.437500 0.875000
vt 0.437500 0.906250
s 0
usemtl barrel.002
f 163/106/9 118/107/9 120/108/9 164/109/9
f 164/109/10 120/108/10 122/110/10 165/111/10
f 165/112/11 122/113/11 124/114/11 166/115/11
f 166/115/12 124/114/12 126/116/12 167/117/12
f 167/117/13 126/116/13 128/118/13 168/119/13
f 192/115/14 191/112/14 140/120/14 139/121/14
f 137/122/15 130/123/15 117/124/15 119/125/15
f 117/126/15 130/123/15 129/127/15 127/128/15
f 121/129/15 140/130/15 137/122/15 119/125/15
f 127/128/15 129/127/15 138/131/15 125/132/15
f 125/132/15 138/131/15 139/133/15 123/134/15
f 123/121/15 139/133/15 140/135/15 121/120/15
f 181/136/16 183/137/16 189/138/16 186/139/16
f 182/140/16 181/136/16 186/139/16 188/141/16
f 195/119/10 193/117/10 138/142/10 129/143/10
f 194/109/12 196/106/12 130/124/12 137/125/12
f 191/111/13 194/109/13 137/125/13 140/129/13
f 193/117/9 192/115/9 139/121/9 138/142/9
f 196/106/11 195/119/11 129/143/11 130/124/11
f 180/144/16 184/145/16 190/146/16 185/147/16
f 179/148/16 180/144/16 185/147/16 187/149/16
f 158/150/17 145/151/17 144/152/17 153/153/17
f 146/154/15 148/151/15 142/152/15
f 147/154/15 143/155/15 144/152/15
f 156/156/18 157/157/18 221/158/18 209/159/18
f 150/160/14 151/161/14 205/162/14 197/163/14
f 189/157/14 187/164/14 229/165/14 231/166/14
f 124/148/15 122/167/15 147/168/15 145/151/15
f 157/169/19 150/160/19 197/163/19 221/170/19
f 120/171/15 118/140/15 148/136/15 146/172/15
f 149/149/12 124/148/12 145/151/12 158/150/12
f 151/161/13 152/173/13 206/174/13 205/162/13
f 147/154/9 122/168/9 161/175/9 160/176/9
f 188/160/12 186/169/12 228/177/12 230/163/12
f 118/140/19 150/141/19 157/139/19 148/136/19
f 148/151/18 157/150/18 156/153/18 142/152/18
f 149/164/12 158/157/12 217/178/12 218/179/12
f 141/180/9 142/152/9 156/153/9 155/181/9
f 144/152/11 143/180/11 154/181/11 153/153/11
f 126/116/12 124/114/12 149/167/12 152/182/12
f 128/118/13 126/116/13 152/182/13 151/183/13
f 118/107/14 128/118/14 151/183/14 150/171/14
f 143/155/20 147/154/20 160/176/20 154/184/20
f 160/176/15 159/185/15 155/186/15 154/184/15
f 161/187/15 162/188/15 159/185/15 160/176/15
f 146/189/21 141/190/21 155/186/21 159/185/21
f 120/191/11 146/189/11 159/185/11 162/192/11
f 122/110/10 120/108/10 162/172/10 161/193/10
f 168/119/22 163/106/22 176/194/22 174/195/22
f 123/121/17 166/115/17 169/196/17 170/197/17
f 166/115/23 167/117/23 172/198/23 169/196/23
f 121/120/11 165/112/11 166/115/11 123/121/11
f 119/125/10 164/109/10 165/111/10 121/129/10
f 117/124/9 163/106/9 164/109/9 119/125/9
f 173/143/14 174/195/14 176/194/14 175/199/14
f 171/142/13 172/198/13 174/195/13 173/143/13
f 170/197/12 169/196/12 172/198/12 171/142/12
f 117/126/15 127/128/15 173/143/15 175/124/15
f 163/106/18 117/124/18 175/199/18 176/194/18
f 125/132/15 123/134/15 170/121/15 171/142/15
f 177/200/13 178/201/13 174/195/13 172/198/13
f 127/128/15 125/132/15 171/142/15 173/143/15
f 168/119/14 128/118/14 118/107/14 163/106/14
f 167/117/16 168/119/16 178/201/16 177/200/16
f 177/200/17 172/198/17 167/117/17
f 174/195/18 178/201/18 168/119/18
f 133/182/10 132/183/10 184/145/10 180/144/10
f 136/172/13 135/193/13 183/137/13 181/136/13
f 132/183/11 131/171/11 182/140/11 184/145/11
f 134/167/9 133/182/9 180/144/9 179/148/9
f 131/171/12 136/172/12 181/136/12 182/140/12
f 135/168/14 134/167/14 179/148/14 183/151/14
f 152/173/12 149/164/12 218/179/12 206/174/12
f 187/164/9 185/173/9 224/174/9 229/165/9
f 190/161/11 188/160/11 230/163/11 232/162/11
f 154/202/10 155/203/10 220/204/10 207/205/10
f 186/169/13 189/206/13 231/207/13 228/177/13
f 153/156/11 154/202/11 207/205/11 219/159/11
f 185/173/10 190/161/10 232/162/10 224/174/10
f 155/202/9 156/156/9 209/159/9 220/205/9
f 183/151/16 179/148/16 187/149/16 189/150/16
f 184/145/16 182/140/16 188/141/16 190/146/16
f 158/157/17 153/156/17 219/159/17 217/178/17
f 145/151/15 147/154/15 144/152/15
f 141/155/15 146/154/15 142/152/15
f 131/107/11 132/118/11 195/119/11 196/106/11
f 133/116/9 134/114/9 192/115/9 193/117/9
f 135/110/13 136/108/13 194/109/13 191/111/13
f 136/108/12 131/107/12 196/106/12 194/109/12
f 132/118/10 133/116/10 193/117/10 195/119/10
f 134/114/14 135/113/14 191/112/14 192/115/14
f 200/208/16 204/209/16 222/210/16 201/211/16
f 215/212/24 214/209/24 208/213/24 211/214/24
f 199/215/16 225/216/16 204/217/16 200/218/16
f 197/141/14 205/146/14 203/219/14 198/220/14
f 201/221/16 222/210/16 223/222/16 202/223/16
f 205/146/13 206/147/13 202/223/13 203/219/13
f 206/147/12 218/149/12 201/221/12 202/223/12
f 207/224/10 220/225/10 211/214/10 208/213/10
f 219/153/11 207/181/11 208/226/11 212/227/11
f 220/181/9 209/153/9 210/227/9 211/226/9
f 221/150/18 216/228/18 210/227/18 209/153/18
f 214/209/25 213/228/25 212/229/25 208/213/25
f 216/230/26 215/212/26 211/214/26 210/231/26
f 198/232/16 199/215/16 215/233/16 216/220/16
f 200/208/16 201/211/16 213/221/16 214/228/16
f 197/141/19 198/220/19 216/233/19 221/139/19
f 199/215/16 200/218/16 214/234/16 215/233/16
f 201/221/12 218/149/12 217/150/12 213/228/12
f 213/228/17 217/150/17 219/153/17 212/227/17
f 231/150/14 229/149/14 222/221/14 204/228/14
f 230/141/12 228/139/12 225/233/12 226/220/12
f 229/149/9 224/147/9 223/223/9 222/221/9
f 232/146/11 230/141/11 226/220/11 227/219/11
f 228/139/13 231/138/13 204/234/13 225/233/13
f 224/147/10 232/146/10 227/219/10 223/223/10
f 202/223/16 223/222/16 227/235/16 203/219/16
f 198/232/16 226/236/16 225/216/16 199/215/16
f 203/219/16 227/235/16 226/236/16 198/220/16
