# Blender 5.1.1
# www.blender.org
mtllib magazine1.mtl
o manazine.001
v 0.225000 0.250000 0.515625
v 0.262500 0.500000 0.515625
v 0.225000 0.250000 0.484375
v 0.262500 0.500000 0.484375
v 0.318750 0.250000 0.515625
v 0.356250 0.500000 0.515625
v 0.318750 0.250000 0.484375
v 0.356250 0.500000 0.484375
v 0.206250 0.125000 0.484375
v 0.206250 0.125000 0.515625
v 0.300000 0.125000 0.484375
v 0.300000 0.125000 0.515625
v 0.206250 0.112500 0.484375
v 0.206250 0.112500 0.515625
v 0.300000 0.112500 0.484375
v 0.300000 0.112500 0.515625
v 0.343750 0.125000 0.515625
v 0.343750 0.125000 0.484375
v 0.331250 0.112500 0.515625
v 0.331250 0.112500 0.484375
v 0.300000 0.125000 0.481250
v 0.206250 0.125000 0.481250
v 0.206250 0.125000 0.518750
v 0.300000 0.125000 0.518750
v 0.300000 0.112500 0.481250
v 0.206250 0.112500 0.481250
v 0.206250 0.112500 0.518750
v 0.300000 0.112500 0.518750
v 0.331250 0.112500 0.518750
v 0.343750 0.125000 0.518750
v 0.343750 0.125000 0.481250
v 0.331250 0.112500 0.481250
vn -0.9889 0.1483 -0.0000
vn -0.0000 -0.0000 -1.0000
vn 0.9889 -0.1483 -0.0000
vn -0.0000 -0.0000 1.0000
vn -0.0000 1.0000 -0.0000
vn -0.0000 -1.0000 -0.0000
vn -1.0000 -0.0000 -0.0000
vn 0.7071 -0.7071 -0.0000
vt 0.375000 0.375000
vt 0.375000 0.500000
vt 0.390625 0.500000
vt 0.390625 0.375000
vt 0.437500 0.500000
vt 0.437500 0.375000
vt 0.421875 0.375000
vt 0.421875 0.500000
vt 0.437500 0.484375
vt 0.375000 0.484375
vt 0.421875 0.343750
vt 0.437500 0.343750
vt 0.437500 0.281250
vt 0.421875 0.281250
vt 0.375000 0.343750
vt 0.390625 0.343750
vt 0.390625 0.281250
vt 0.375000 0.281250
vt 0.437500 0.343750
vt 0.437500 0.281250
vt 0.375000 0.281250
vt 0.375000 0.351190
vt 0.437500 0.351190
vt 0.375130 0.375000
vt 0.376432 0.375000
vt 0.376432 0.351190
vt 0.375130 0.351190
vt 0.450617 0.351190
vt 0.468364 0.375000
vt 0.437500 0.372619
vt 0.468364 0.372619
vt 0.375000 0.372619
vt 0.376562 0.375000
vt 0.376562 0.351190
s 0
usemtl magazine
f 1/1/1 2/2/1 4/3/1 3/4/1
f 3/1/2 4/2/2 8/5/2 7/6/2
f 7/7/3 8/8/3 6/5/3 5/6/3
f 5/6/4 6/5/4 2/2/4 1/1/4
f 8/9/5 4/10/5 2/2/5 6/5/5
f 7/11/3 5/12/3 12/13/3 11/14/3
f 1/15/1 3/16/1 9/17/1 10/18/1
f 3/15/2 7/19/2 11/20/2 9/21/2
f 5/12/4 1/15/4 10/21/4 12/13/4
f 13/22/6 15/23/6 16/23/6 14/22/6
f 10/24/7 9/25/7 13/26/7 14/27/7
f 16/23/6 15/23/6 20/28/6 19/28/6
f 18/29/8 17/29/8 19/28/8 20/28/8
f 11/30/5 12/6/5 17/29/5 18/31/5
f 9/1/5 11/6/5 21/30/5 22/32/5
f 20/28/6 15/23/6 25/23/6 32/28/6
f 14/22/6 16/23/6 28/23/6 27/22/6
f 11/6/5 18/29/5 31/31/5 21/30/5
f 24/6/4 23/1/4 27/22/4 28/23/4
f 22/1/2 21/6/2 25/23/2 26/22/2
f 24/6/4 28/23/4 29/28/4 30/29/4
f 25/23/2 21/6/2 31/29/2 32/28/2
f 13/26/7 9/25/7 22/33/7 26/34/7
f 10/24/7 14/27/7 27/22/7 23/1/7
f 16/23/6 19/28/6 29/28/6 28/23/6
f 12/6/5 10/1/5 23/32/5 24/30/5
f 19/28/8 17/29/8 30/29/8 29/28/8
f 17/29/5 12/6/5 24/30/5 30/31/5
f 15/23/6 13/22/6 26/22/6 25/23/6
f 18/29/8 20/28/8 32/28/8 31/29/8
